<svg id="visual" viewBox="0 0 675 900" width="675" height="900" xmlns="http://www.w3.org/2000/svg" xmlns:xlink="http://www.w3.org/1999/xlink" version="1.1"><rect x="0" y="0" width="675" height="900" fill="#131417"></rect><defs><linearGradient id="grad1_0" x1="0%" y1="0%" x2="100%" y2="100%"><stop offset="30%" stop-color="#20accc" stop-opacity="1"></stop><stop offset="70%" stop-color="#20accc" stop-opacity="1"></stop></linearGradient></defs><defs><linearGradient id="grad1_1" x1="0%" y1="0%" x2="100%" y2="100%"><stop offset="30%" stop-color="#20accc" stop-opacity="1"></stop><stop offset="70%" stop-color="#2f8faf" stop-opacity="1"></stop></linearGradient></defs><defs><linearGradient id="grad1_2" x1="0%" y1="0%" x2="100%" y2="100%"><stop offset="30%" stop-color="#347390" stop-opacity="1"></stop><stop offset="70%" stop-color="#2f8faf" stop-opacity="1"></stop></linearGradient></defs><defs><linearGradient id="grad1_3" x1="0%" y1="0%" x2="100%" y2="100%"><stop offset="30%" stop-color="#347390" stop-opacity="1"></stop><stop offset="70%" stop-color="#335870" stop-opacity="1"></stop></linearGradient></defs><defs><linearGradient id="grad1_4" x1="0%" y1="0%" x2="100%" y2="100%"><stop offset="30%" stop-color="#2d3f51" stop-opacity="1"></stop><stop offset="70%" stop-color="#335870" stop-opacity="1"></stop></linearGradient></defs><defs><linearGradient id="grad1_5" x1="0%" y1="0%" x2="100%" y2="100%"><stop offset="30%" stop-color="#2d3f51" stop-opacity="1"></stop><stop offset="70%" stop-color="#222933" stop-opacity="1"></stop></linearGradient></defs><defs><linearGradient id="grad1_6" x1="0%" y1="0%" x2="100%" y2="100%"><stop offset="30%" stop-color="#131417" stop-opacity="1"></stop><stop offset="70%" stop-color="#222933" stop-opacity="1"></stop></linearGradient></defs><defs><linearGradient id="grad2_0" x1="0%" y1="0%" x2="100%" y2="100%"><stop offset="30%" stop-color="#20accc" stop-opacity="1"></stop><stop offset="70%" stop-color="#20accc" stop-opacity="1"></stop></linearGradient></defs><defs><linearGradient id="grad2_1" x1="0%" y1="0%" x2="100%" y2="100%"><stop offset="30%" stop-color="#2f8faf" stop-opacity="1"></stop><stop offset="70%" stop-color="#20accc" stop-opacity="1"></stop></linearGradient></defs><defs><linearGradient id="grad2_2" x1="0%" y1="0%" x2="100%" y2="100%"><stop offset="30%" stop-color="#2f8faf" stop-opacity="1"></stop><stop offset="70%" stop-color="#347390" stop-opacity="1"></stop></linearGradient></defs><defs><linearGradient id="grad2_3" x1="0%" y1="0%" x2="100%" y2="100%"><stop offset="30%" stop-color="#335870" stop-opacity="1"></stop><stop offset="70%" stop-color="#347390" stop-opacity="1"></stop></linearGradient></defs><defs><linearGradient id="grad2_4" x1="0%" y1="0%" x2="100%" y2="100%"><stop offset="30%" stop-color="#335870" stop-opacity="1"></stop><stop offset="70%" stop-color="#2d3f51" stop-opacity="1"></stop></linearGradient></defs><defs><linearGradient id="grad2_5" x1="0%" y1="0%" x2="100%" y2="100%"><stop offset="30%" stop-color="#222933" stop-opacity="1"></stop><stop offset="70%" stop-color="#2d3f51" stop-opacity="1"></stop></linearGradient></defs><defs><linearGradient id="grad2_6" x1="0%" y1="0%" x2="100%" y2="100%"><stop offset="30%" stop-color="#222933" stop-opacity="1"></stop><stop offset="70%" stop-color="#131417" stop-opacity="1"></stop></linearGradient></defs><g transform="translate(675, 0)"><path d="M0 365.6C-26.9 356.6 -53.9 347.6 -75.9 332.5C-97.9 317.3 -115 296.1 -137.1 284.7C-159.2 273.3 -186.4 271.7 -208.9 261.9C-231.3 252.1 -249.1 234.2 -272.1 217C-295.1 199.8 -323.3 183.3 -329.4 158.6C-335.5 134 -319.4 101.2 -321.7 73.4C-324.1 45.6 -344.8 22.8 -365.6 0L0 0Z" fill="#1b1e25"></path><path d="M0 313.4C-23.1 305.7 -46.2 297.9 -65 285C-83.9 272 -98.6 253.8 -117.5 244C-136.5 234.3 -159.8 232.9 -179 224.5C-198.3 216.1 -213.5 200.7 -233.2 186C-252.9 171.2 -277.1 157.1 -282.4 136C-287.6 114.9 -273.8 86.8 -275.8 62.9C-277.8 39.1 -295.6 19.6 -313.4 0L0 0Z" fill="#283442"></path><path d="M0 261.2C-19.2 254.7 -38.5 248.3 -54.2 237.5C-69.9 226.7 -82.1 211.5 -97.9 203.4C-113.7 195.2 -133.1 194.1 -149.2 187.1C-165.2 180.1 -177.9 167.3 -194.3 155C-210.8 142.7 -231 130.9 -235.3 113.3C-239.6 95.7 -228.1 72.3 -229.8 52.5C-231.5 32.6 -246.3 16.3 -261.2 0L0 0Z" fill="#304b61"></path><path d="M0 208.9C-15.4 203.8 -30.8 198.6 -43.4 190C-55.9 181.3 -65.7 169.2 -78.3 162.7C-91 156.2 -106.5 155.3 -119.4 149.7C-132.2 144.1 -142.3 133.8 -155.5 124C-168.6 114.1 -184.8 104.7 -188.2 90.7C-191.7 76.6 -182.5 57.8 -183.8 42C-185.2 26.1 -197.1 13 -208.9 0L0 0Z" fill="#356580"></path><path d="M0 156.7C-11.5 152.8 -23.1 149 -32.5 142.5C-42 136 -49.3 126.9 -58.8 122C-68.2 117.1 -79.9 116.4 -89.5 112.2C-99.1 108.1 -106.7 100.4 -116.6 93C-126.5 85.6 -138.6 78.5 -141.2 68C-143.8 57.4 -136.9 43.4 -137.9 31.5C-138.9 19.6 -147.8 9.8 -156.7 0L0 0Z" fill="#3380a0"></path><path d="M0 104.5C-7.7 101.9 -15.4 99.3 -21.7 95C-28 90.7 -32.9 84.6 -39.2 81.3C-45.5 78.1 -53.3 77.6 -59.7 74.8C-66.1 72 -71.2 66.9 -77.7 62C-84.3 57.1 -92.4 52.4 -94.1 45.3C-95.9 38.3 -91.3 28.9 -91.9 21C-92.6 13 -98.5 6.5 -104.5 0L0 0Z" fill="#299dbe"></path><path d="M0 52.2C-3.8 50.9 -7.7 49.7 -10.8 47.5C-14 45.3 -16.4 42.3 -19.6 40.7C-22.7 39 -26.6 38.8 -29.8 37.4C-33 36 -35.6 33.5 -38.9 31C-42.2 28.5 -46.2 26.2 -47.1 22.7C-47.9 19.1 -45.6 14.5 -46 10.5C-46.3 6.5 -49.3 3.3 -52.2 0L0 0Z" fill="#20accc"></path></g><g transform="translate(0, 900)"><path d="M0 -365.6C26.2 -353.8 52.3 -342.1 75.4 -330.5C98.5 -319 118.6 -307.6 146.2 -303.6C173.8 -299.6 209 -302.9 228 -285.9C247 -268.8 249.9 -231.4 254.1 -202.6C258.3 -173.9 263.9 -153.7 281.1 -135.4C298.3 -117.1 327.1 -100.6 343.2 -78.3C359.2 -56.1 362.4 -28 365.6 0L0 0Z" fill="#1b1e25"></path><path d="M0 -313.4C22.4 -303.3 44.8 -293.2 64.7 -283.3C84.5 -273.4 101.7 -263.7 125.3 -260.3C149 -256.8 179.1 -259.6 195.4 -245C211.7 -230.4 214.2 -198.4 217.8 -173.7C221.4 -149 226.2 -131.7 240.9 -116C255.7 -100.3 280.4 -86.2 294.1 -67.1C307.9 -48.1 310.6 -24 313.4 0L0 0Z" fill="#283442"></path><path d="M0 -261.2C18.7 -252.7 37.4 -244.3 53.9 -236.1C70.4 -227.8 84.7 -219.7 104.4 -216.9C124.2 -214 149.3 -216.4 162.8 -204.2C176.4 -192 178.5 -165.3 181.5 -144.7C184.5 -124.2 188.5 -109.8 200.8 -96.7C213.1 -83.6 233.7 -71.8 245.1 -55.9C256.6 -40.1 258.9 -20 261.2 0L0 0Z" fill="#304b61"></path><path d="M0 -208.9C14.9 -202.2 29.9 -195.5 43.1 -188.9C56.3 -182.3 67.8 -175.8 83.6 -173.5C99.3 -171.2 119.4 -173.1 130.3 -163.3C141.1 -153.6 142.8 -132.2 145.2 -115.8C147.6 -99.3 150.8 -87.8 160.6 -77.4C170.5 -66.9 186.9 -57.5 196.1 -44.8C205.3 -32 207.1 -16 208.9 0L0 0Z" fill="#356580"></path><path d="M0 -156.7C11.2 -151.6 22.4 -146.6 32.3 -141.6C42.2 -136.7 50.8 -131.8 62.7 -130.1C74.5 -128.4 89.6 -129.8 97.7 -122.5C105.8 -115.2 107.1 -99.2 108.9 -86.8C110.7 -74.5 113.1 -65.9 120.5 -58C127.8 -50.2 140.2 -43.1 147.1 -33.6C153.9 -24 155.3 -12 156.7 0L0 0Z" fill="#3380a0"></path><path d="M0 -104.5C7.5 -101.1 14.9 -97.7 21.6 -94.4C28.2 -91.1 33.9 -87.9 41.8 -86.8C49.7 -85.6 59.7 -86.5 65.1 -81.7C70.6 -76.8 71.4 -66.1 72.6 -57.9C73.8 -49.7 75.4 -43.9 80.3 -38.7C85.2 -33.4 93.5 -28.7 98 -22.4C102.6 -16 103.5 -8 104.5 0L0 0Z" fill="#299dbe"></path><path d="M0 -52.2C3.7 -50.5 7.5 -48.9 10.8 -47.2C14.1 -45.6 16.9 -43.9 20.9 -43.4C24.8 -42.8 29.9 -43.3 32.6 -40.8C35.3 -38.4 35.7 -33.1 36.3 -28.9C36.9 -24.8 37.7 -22 40.2 -19.3C42.6 -16.7 46.7 -14.4 49 -11.2C51.3 -8 51.8 -4 52.2 0L0 0Z" fill="#20accc"></path></g></svg>