<svg id="visual" viewBox="0 0 900 600" width="900" height="600" xmlns="http://www.w3.org/2000/svg" xmlns:xlink="http://www.w3.org/1999/xlink" version="1.1"><rect x="0" y="0" width="900" height="600" fill="#131417"></rect><path d="M0 238L21.5 223.5C43 209 86 180 128.8 178C171.7 176 214.3 201 257.2 203.7C300 206.3 343 186.7 385.8 175.7C428.7 164.7 471.3 162.3 514.2 165C557 167.7 600 175.3 642.8 179.7C685.7 184 728.3 185 771.2 191.3C814 197.7 857 209.3 878.5 215.2L900 221L900 0L878.5 0C857 0 814 0 771.2 0C728.3 0 685.7 0 642.8 0C600 0 557 0 514.2 0C471.3 0 428.7 0 385.8 0C343 0 300 0 257.2 0C214.3 0 171.7 0 128.8 0C86 0 43 0 21.5 0L0 0Z" fill="#3e4d79"></path><path d="M0 173L21.5 170.8C43 168.7 86 164.3 128.8 166C171.7 167.7 214.3 175.3 257.2 169.8C300 164.3 343 145.7 385.8 138.2C428.7 130.7 471.3 134.3 514.2 146C557 157.7 600 177.3 642.8 176.5C685.7 175.7 728.3 154.3 771.2 151.8C814 149.3 857 165.7 878.5 173.8L900 182L900 0L878.5 0C857 0 814 0 771.2 0C728.3 0 685.7 0 642.8 0C600 0 557 0 514.2 0C471.3 0 428.7 0 385.8 0C343 0 300 0 257.2 0C214.3 0 171.7 0 128.8 0C86 0 43 0 21.5 0L0 0Z" fill="#2e6a97"></path><path d="M0 123L21.5 125.7C43 128.3 86 133.7 128.8 131.8C171.7 130 214.3 121 257.2 123.2C300 125.3 343 138.7 385.8 134.7C428.7 130.7 471.3 109.3 514.2 103C557 96.7 600 105.3 642.8 115.7C685.7 126 728.3 138 771.2 138.8C814 139.7 857 129.3 878.5 124.2L900 119L900 0L878.5 0C857 0 814 0 771.2 0C728.3 0 685.7 0 642.8 0C600 0 557 0 514.2 0C471.3 0 428.7 0 385.8 0C343 0 300 0 257.2 0C214.3 0 171.7 0 128.8 0C86 0 43 0 21.5 0L0 0Z" fill="#0788ad"></path><path d="M0 88L21.5 86.3C43 84.7 86 81.3 128.8 79.2C171.7 77 214.3 76 257.2 79.8C300 83.7 343 92.3 385.8 96.5C428.7 100.7 471.3 100.3 514.2 94.7C557 89 600 78 642.8 77.5C685.7 77 728.3 87 771.2 94.2C814 101.3 857 105.7 878.5 107.8L900 110L900 0L878.5 0C857 0 814 0 771.2 0C728.3 0 685.7 0 642.8 0C600 0 557 0 514.2 0C471.3 0 428.7 0 385.8 0C343 0 300 0 257.2 0C214.3 0 171.7 0 128.8 0C86 0 43 0 21.5 0L0 0Z" fill="#00a6ba"></path><path d="M0 53L21.5 55.3C43 57.7 86 62.3 128.8 61.8C171.7 61.3 214.3 55.7 257.2 52C300 48.3 343 46.7 385.8 49.5C428.7 52.3 471.3 59.7 514.2 61.7C557 63.7 600 60.3 642.8 61.3C685.7 62.3 728.3 67.7 771.2 70C814 72.3 857 71.7 878.5 71.3L900 71L900 0L878.5 0C857 0 814 0 771.2 0C728.3 0 685.7 0 642.8 0C600 0 557 0 514.2 0C471.3 0 428.7 0 385.8 0C343 0 300 0 257.2 0C214.3 0 171.7 0 128.8 0C86 0 43 0 21.5 0L0 0Z" fill="#38c3be"></path></svg>